<svg width="139" height="19" viewBox="0 0 139 19" fill="none" xmlns="http://www.w3.org/2000/svg">
<path d="M0.36 14L4.446 1.04H7.623L11.709 14H9.477L5.769 2.372H6.255L2.592 14H0.36ZM2.637 11.192V9.167H9.441V11.192H2.637ZM17.8272 14.27C16.8792 14.27 16.0842 14.045 15.4422 13.595C14.8002 13.145 14.3172 12.533 13.9932 11.759C13.6692 10.979 13.5072 10.106 13.5072 9.14C13.5072 8.162 13.6692 7.286 13.9932 6.512C14.3172 5.738 14.7912 5.129 15.4152 4.685C16.0452 4.235 16.8222 4.01 17.7462 4.01C18.6642 4.01 19.4592 4.235 20.1312 4.685C20.8092 5.129 21.3342 5.738 21.7062 6.512C22.0782 7.28 22.2642 8.156 22.2642 9.14C22.2642 10.112 22.0812 10.985 21.7152 11.759C21.3492 12.533 20.8332 13.145 20.1672 13.595C19.5012 14.045 18.7212 14.27 17.8272 14.27ZM13.1382 18.32V4.28H15.0552V11.102H15.3252V18.32H13.1382ZM17.4942 12.326C18.0582 12.326 18.5232 12.185 18.8892 11.903C19.2552 11.621 19.5252 11.24 19.6992 10.76C19.8792 10.274 19.9692 9.734 19.9692 9.14C19.9692 8.552 19.8792 8.018 19.6992 7.538C19.5192 7.052 19.2402 6.668 18.8622 6.386C18.4842 6.098 18.0042 5.954 17.4222 5.954C16.8702 5.954 16.4202 6.089 16.0722 6.359C15.7242 6.623 15.4662 6.995 15.2982 7.475C15.1362 7.949 15.0552 8.504 15.0552 9.14C15.0552 9.77 15.1362 10.325 15.2982 10.805C15.4662 11.285 15.7272 11.66 16.0812 11.93C16.4412 12.194 16.9122 12.326 17.4942 12.326ZM28.739 14.27C27.791 14.27 26.996 14.045 26.354 13.595C25.712 13.145 25.229 12.533 24.905 11.759C24.581 10.979 24.419 10.106 24.419 9.14C24.419 8.162 24.581 7.286 24.905 6.512C25.229 5.738 25.703 5.129 26.327 4.685C26.957 4.235 27.734 4.01 28.658 4.01C29.576 4.01 30.371 4.235 31.043 4.685C31.721 5.129 32.246 5.738 32.618 6.512C32.99 7.28 33.176 8.156 33.176 9.14C33.176 10.112 32.993 10.985 32.627 11.759C32.261 12.533 31.745 13.145 31.079 13.595C30.413 14.045 29.633 14.27 28.739 14.27ZM24.05 18.32V4.28H25.967V11.102H26.237V18.32H24.05ZM28.406 12.326C28.97 12.326 29.435 12.185 29.801 11.903C30.167 11.621 30.437 11.24 30.611 10.76C30.791 10.274 30.881 9.734 30.881 9.14C30.881 8.552 30.791 8.018 30.611 7.538C30.431 7.052 30.152 6.668 29.774 6.386C29.396 6.098 28.916 5.954 28.334 5.954C27.782 5.954 27.332 6.089 26.984 6.359C26.636 6.623 26.378 6.995 26.21 7.475C26.048 7.949 25.967 8.504 25.967 9.14C25.967 9.77 26.048 10.325 26.21 10.805C26.378 11.285 26.639 11.66 26.993 11.93C27.353 12.194 27.824 12.326 28.406 12.326ZM35.1598 14V0.77H37.3288V14H35.1598ZM41.1227 18.32L42.9947 13.181L43.0307 14.693L38.7917 4.28H41.0507L44.0567 11.984H43.4807L46.4057 4.28H48.5747L43.1567 18.32H41.1227ZM54.0065 14V4.127C54.0065 3.881 54.0155 3.611 54.0335 3.317C54.0515 3.017 54.1025 2.72 54.1865 2.426C54.2705 2.132 54.4235 1.865 54.6455 1.625C54.9215 1.319 55.2185 1.109 55.5365 0.995C55.8605 0.875 56.1785 0.808999 56.4905 0.796999C56.8025 0.778999 57.0755 0.77 57.3095 0.77H58.5245V2.534H57.3995C56.9855 2.534 56.6765 2.639 56.4725 2.849C56.2745 3.053 56.1755 3.323 56.1755 3.659V14H54.0065ZM52.4405 5.981V4.28H58.5245V5.981H52.4405ZM63.7246 14.27C62.7526 14.27 61.9036 14.051 61.1776 13.613C60.4516 13.175 59.8876 12.572 59.4856 11.804C59.0896 11.03 58.8916 10.142 58.8916 9.14C58.8916 8.12 59.0956 7.226 59.5036 6.458C59.9116 5.69 60.4786 5.09 61.2046 4.658C61.9306 4.226 62.7706 4.01 63.7246 4.01C64.7026 4.01 65.5546 4.229 66.2806 4.667C67.0066 5.105 67.5706 5.711 67.9726 6.485C68.3746 7.253 68.5756 8.138 68.5756 9.14C68.5756 10.148 68.3716 11.039 67.9636 11.813C67.5616 12.581 66.9976 13.184 66.2716 13.622C65.5456 14.054 64.6966 14.27 63.7246 14.27ZM63.7246 12.236C64.5886 12.236 65.2306 11.948 65.6506 11.372C66.0706 10.796 66.2806 10.052 66.2806 9.14C66.2806 8.198 66.0676 7.448 65.6416 6.89C65.2156 6.326 64.5766 6.044 63.7246 6.044C63.1426 6.044 62.6626 6.176 62.2846 6.44C61.9126 6.698 61.6366 7.061 61.4566 7.529C61.2766 7.991 61.1866 8.528 61.1866 9.14C61.1866 10.082 61.3996 10.835 61.8256 11.399C62.2576 11.957 62.8906 12.236 63.7246 12.236ZM70.3786 14V4.28H72.2956V6.647L72.0616 6.341C72.1816 6.017 72.3406 5.723 72.5386 5.459C72.7426 5.189 72.9856 4.967 73.2676 4.793C73.5076 4.631 73.7716 4.505 74.0596 4.415C74.3536 4.319 74.6536 4.262 74.9596 4.244C75.2656 4.22 75.5626 4.232 75.8506 4.28V6.305C75.5626 6.221 75.2296 6.194 74.8516 6.224C74.4796 6.254 74.1436 6.359 73.8436 6.539C73.5436 6.701 73.2976 6.908 73.1056 7.16C72.9196 7.412 72.7816 7.7 72.6916 8.024C72.6016 8.342 72.5566 8.687 72.5566 9.059V14H70.3786ZM83.5296 14.27C82.8276 14.27 82.2336 14.138 81.7476 13.874C81.2616 13.604 80.8926 13.247 80.6406 12.803C80.3946 12.359 80.2716 11.87 80.2716 11.336C80.2716 10.868 80.3496 10.448 80.5056 10.076C80.6616 9.698 80.9016 9.374 81.2256 9.104C81.5496 8.828 81.9696 8.603 82.4856 8.429C82.8756 8.303 83.3316 8.189 83.8536 8.087C84.3816 7.985 84.9516 7.892 85.5636 7.808C86.1816 7.718 86.8266 7.622 87.4986 7.52L86.7246 7.961C86.7306 7.289 86.5806 6.794 86.2746 6.476C85.9686 6.158 85.4526 5.999 84.7266 5.999C84.2886 5.999 83.8656 6.101 83.4576 6.305C83.0496 6.509 82.7646 6.86 82.6026 7.358L80.6226 6.737C80.8626 5.915 81.3186 5.255 81.9906 4.757C82.6686 4.259 83.5806 4.01 84.7266 4.01C85.5906 4.01 86.3496 4.151 87.0036 4.433C87.6636 4.715 88.1526 5.177 88.4706 5.819C88.6446 6.161 88.7496 6.512 88.7856 6.872C88.8216 7.226 88.8396 7.613 88.8396 8.033V14H86.9406V11.894L87.2556 12.236C86.8176 12.938 86.3046 13.454 85.7166 13.784C85.1346 14.108 84.4056 14.27 83.5296 14.27ZM83.9616 12.542C84.4536 12.542 84.8736 12.455 85.2216 12.281C85.5696 12.107 85.8456 11.894 86.0496 11.642C86.2596 11.39 86.4006 11.153 86.4726 10.931C86.5866 10.655 86.6496 10.34 86.6616 9.986C86.6796 9.626 86.6886 9.335 86.6886 9.113L87.3546 9.311C86.7006 9.413 86.1396 9.503 85.6716 9.581C85.2036 9.659 84.8016 9.734 84.4656 9.806C84.1296 9.872 83.8326 9.947 83.5746 10.031C83.3226 10.121 83.1096 10.226 82.9356 10.346C82.7616 10.466 82.6266 10.604 82.5306 10.76C82.4406 10.916 82.3956 11.099 82.3956 11.309C82.3956 11.549 82.4556 11.762 82.5756 11.948C82.6956 12.128 82.8696 12.272 83.0976 12.38C83.3316 12.488 83.6196 12.542 83.9616 12.542ZM95.2237 14.27C94.2217 14.27 93.3667 14.048 92.6587 13.604C91.9507 13.154 91.4077 12.542 91.0297 11.768C90.6577 10.994 90.4687 10.118 90.4627 9.14C90.4687 8.144 90.6637 7.262 91.0477 6.494C91.4377 5.72 91.9897 5.114 92.7037 4.676C93.4177 4.232 94.2667 4.01 95.2507 4.01C96.3547 4.01 97.2877 4.289 98.0497 4.847C98.8177 5.399 99.3187 6.155 99.5527 7.115L97.3927 7.7C97.2247 7.178 96.9457 6.773 96.5557 6.485C96.1657 6.191 95.7217 6.044 95.2237 6.044C94.6597 6.044 94.1947 6.179 93.8287 6.449C93.4627 6.713 93.1927 7.079 93.0187 7.547C92.8447 8.015 92.7577 8.546 92.7577 9.14C92.7577 10.064 92.9647 10.811 93.3787 11.381C93.7927 11.951 94.4077 12.236 95.2237 12.236C95.7997 12.236 96.2527 12.104 96.5827 11.84C96.9187 11.576 97.1707 11.195 97.3387 10.697L99.5527 11.192C99.2527 12.182 98.7277 12.944 97.9777 13.478C97.2277 14.006 96.3097 14.27 95.2237 14.27ZM105.133 14.27C104.131 14.27 103.276 14.048 102.568 13.604C101.86 13.154 101.317 12.542 100.939 11.768C100.567 10.994 100.378 10.118 100.372 9.14C100.378 8.144 100.573 7.262 100.957 6.494C101.347 5.72 101.899 5.114 102.613 4.676C103.327 4.232 104.176 4.01 105.16 4.01C106.264 4.01 107.197 4.289 107.959 4.847C108.727 5.399 109.228 6.155 109.462 7.115L107.302 7.7C107.134 7.178 106.855 6.773 106.465 6.485C106.075 6.191 105.631 6.044 105.133 6.044C104.569 6.044 104.104 6.179 103.738 6.449C103.372 6.713 103.102 7.079 102.928 7.547C102.754 8.015 102.667 8.546 102.667 9.14C102.667 10.064 102.874 10.811 103.288 11.381C103.702 11.951 104.317 12.236 105.133 12.236C105.709 12.236 106.162 12.104 106.492 11.84C106.828 11.576 107.08 11.195 107.248 10.697L109.462 11.192C109.162 12.182 108.637 12.944 107.887 13.478C107.137 14.006 106.219 14.27 105.133 14.27ZM115.241 14.27C114.257 14.27 113.393 14.057 112.649 13.631C111.905 13.205 111.323 12.614 110.903 11.858C110.489 11.102 110.282 10.232 110.282 9.248C110.282 8.186 110.486 7.265 110.894 6.485C111.302 5.699 111.869 5.09 112.595 4.658C113.321 4.226 114.161 4.01 115.115 4.01C116.123 4.01 116.978 4.247 117.68 4.721C118.388 5.189 118.913 5.852 119.255 6.71C119.597 7.568 119.726 8.579 119.642 9.743H117.491V8.951C117.485 7.895 117.299 7.124 116.933 6.638C116.567 6.152 115.991 5.909 115.205 5.909C114.317 5.909 113.657 6.185 113.225 6.737C112.793 7.283 112.577 8.084 112.577 9.14C112.577 10.124 112.793 10.886 113.225 11.426C113.657 11.966 114.287 12.236 115.115 12.236C115.649 12.236 116.108 12.119 116.492 11.885C116.882 11.645 117.182 11.3 117.392 10.85L119.534 11.498C119.162 12.374 118.586 13.055 117.806 13.541C117.032 14.027 116.177 14.27 115.241 14.27ZM111.893 9.743V8.105H118.58V9.743H111.893ZM125.223 14.27C124.023 14.27 123.048 14 122.298 13.46C121.548 12.92 121.092 12.161 120.93 11.183L123.144 10.841C123.258 11.321 123.51 11.699 123.9 11.975C124.29 12.251 124.782 12.389 125.376 12.389C125.898 12.389 126.3 12.287 126.582 12.083C126.87 11.873 127.014 11.588 127.014 11.228C127.014 11.006 126.96 10.829 126.852 10.697C126.75 10.559 126.522 10.427 126.168 10.301C125.814 10.175 125.271 10.016 124.539 9.824C123.723 9.608 123.075 9.377 122.595 9.131C122.115 8.879 121.77 8.582 121.56 8.24C121.35 7.898 121.245 7.484 121.245 6.998C121.245 6.392 121.404 5.864 121.722 5.414C122.04 4.964 122.484 4.619 123.054 4.379C123.624 4.133 124.296 4.01 125.07 4.01C125.826 4.01 126.495 4.127 127.077 4.361C127.665 4.595 128.139 4.928 128.499 5.36C128.859 5.792 129.081 6.299 129.165 6.881L126.951 7.277C126.897 6.863 126.708 6.536 126.384 6.296C126.066 6.056 125.64 5.921 125.106 5.891C124.596 5.861 124.185 5.939 123.873 6.125C123.561 6.305 123.405 6.56 123.405 6.89C123.405 7.076 123.468 7.235 123.594 7.367C123.72 7.499 123.972 7.631 124.35 7.763C124.734 7.895 125.304 8.057 126.06 8.249C126.834 8.447 127.452 8.675 127.914 8.933C128.382 9.185 128.718 9.488 128.922 9.842C129.132 10.196 129.237 10.625 129.237 11.129C129.237 12.107 128.88 12.875 128.166 13.433C127.458 13.991 126.477 14.27 125.223 14.27ZM134.782 14.27C133.582 14.27 132.607 14 131.857 13.46C131.107 12.92 130.651 12.161 130.489 11.183L132.703 10.841C132.817 11.321 133.069 11.699 133.459 11.975C133.849 12.251 134.341 12.389 134.935 12.389C135.457 12.389 135.859 12.287 136.141 12.083C136.429 11.873 136.573 11.588 136.573 11.228C136.573 11.006 136.519 10.829 136.411 10.697C136.309 10.559 136.081 10.427 135.727 10.301C135.373 10.175 134.83 10.016 134.098 9.824C133.282 9.608 132.634 9.377 132.154 9.131C131.674 8.879 131.329 8.582 131.119 8.24C130.909 7.898 130.804 7.484 130.804 6.998C130.804 6.392 130.963 5.864 131.281 5.414C131.599 4.964 132.043 4.619 132.613 4.379C133.183 4.133 133.855 4.01 134.629 4.01C135.385 4.01 136.054 4.127 136.636 4.361C137.224 4.595 137.698 4.928 138.058 5.36C138.418 5.792 138.64 6.299 138.724 6.881L136.51 7.277C136.456 6.863 136.267 6.536 135.943 6.296C135.625 6.056 135.199 5.921 134.665 5.891C134.155 5.861 133.744 5.939 133.432 6.125C133.12 6.305 132.964 6.56 132.964 6.89C132.964 7.076 133.027 7.235 133.153 7.367C133.279 7.499 133.531 7.631 133.909 7.763C134.293 7.895 134.863 8.057 135.619 8.249C136.393 8.447 137.011 8.675 137.473 8.933C137.941 9.185 138.277 9.488 138.481 9.842C138.691 10.196 138.796 10.625 138.796 11.129C138.796 12.107 138.439 12.875 137.725 13.433C137.017 13.991 136.036 14.27 134.782 14.27Z" fill="white"/>
</svg>
